<svg width="200" height="200" viewBox="0 0 200 200" fill="none" xmlns="http://www.w3.org/2000/svg">
<g id="Burger Shop">
<rect width="200" height="200" rx="50" fill="transparent"/>
<g id="Group 5">
<g id="Burger">
<path id="Vector" d="M134.024 103.366H57.1951C55.7396 103.366 54.3438 102.788 53.3146 101.758C52.2855 100.729 51.7073 99.3335 51.7073 97.878C51.7073 96.4225 52.2855 95.0267 53.3146 93.9975C54.3438 92.9684 55.7396 92.3902 57.1951 92.3902H134.024C135.48 92.3902 136.876 92.9684 137.905 93.9975C138.934 95.0267 139.512 96.4225 139.512 97.878C139.512 99.3335 138.934 100.729 137.905 101.758C136.876 102.788 135.48 103.366 134.024 103.366Z" fill="#8E2F39"/>
<path id="Vector_2" d="M138.085 81.4146H53.1342C52.2744 81.4112 51.4274 81.2059 50.6615 80.8151C49.8956 80.4243 49.2323 79.859 48.725 79.1648C48.2177 78.4706 47.8806 77.6668 47.7409 76.8185C47.6012 75.9701 47.6628 75.1007 47.9208 74.2805C53.6281 55.8963 73.2195 43 95.6098 43C118 43 137.591 55.8963 143.299 74.2805C143.565 75.1232 143.623 76.0177 143.47 76.8879C143.316 77.7581 142.954 78.5783 142.415 79.2787C141.877 79.9791 141.177 80.5391 140.375 80.911C139.573 81.2829 138.694 81.4556 137.811 81.4146H138.085ZM61.75 70.439H129.47C125.593 65.1445 120.483 60.8771 114.582 58.0078C108.68 55.1386 102.168 53.7544 95.6098 53.9756C89.0518 53.7544 82.5391 55.1386 76.638 58.0078C70.7369 60.8771 65.6261 65.1445 61.75 70.439Z" fill="#8E2F39"/>
<path id="Vector_3" d="M117.561 147.268H73.6586C66.3813 147.268 59.4021 144.377 54.2562 139.232C49.1104 134.086 46.2195 127.107 46.2195 119.829C46.2195 118.374 46.7977 116.978 47.8269 115.949C48.856 114.92 50.2519 114.341 51.7073 114.341H94.0183C95.4738 114.341 96.8696 114.92 97.8988 115.949C98.928 116.978 99.5061 118.374 99.5061 119.829C99.5061 121.285 98.928 122.681 97.8988 123.71C96.8696 124.739 95.4738 125.317 94.0183 125.317H58.1281C59.2634 128.528 61.3668 131.308 64.1483 133.274C66.9298 135.24 70.2526 136.294 73.6586 136.293H117.561C120.967 136.294 124.29 135.24 127.071 133.274C129.853 131.308 131.956 128.528 133.091 125.317H115.97C114.514 125.317 113.118 124.739 112.089 123.71C111.06 122.681 110.482 121.285 110.482 119.829C110.482 118.374 111.06 116.978 112.089 115.949C113.118 114.92 114.514 114.341 115.97 114.341H139.512C140.968 114.341 142.364 114.92 143.393 115.949C144.422 116.978 145 118.374 145 119.829C145 127.107 142.109 134.086 136.963 139.232C131.818 144.377 124.838 147.268 117.561 147.268Z" fill="#8E2F39"/>
</g>
<path id="Fries" d="M54.5229 98.6696V93.1818C54.5229 92.4541 54.2338 91.7562 53.7192 91.2416C53.2046 90.727 52.5067 90.4379 51.779 90.4379C51.0512 90.4379 50.3533 90.727 49.8387 91.2416C49.3242 91.7562 49.0351 92.4541 49.0351 93.1818V121.993H51.34C52.4813 121.992 53.5939 121.635 54.5229 120.972V98.6696ZM63.1936 112.389C62.0523 112.39 60.9397 112.747 60.0107 113.41V112.389H65.4985V98.6696C65.4985 97.9419 65.2094 97.244 64.6948 96.7294C64.1802 96.2148 63.4823 95.9257 62.7546 95.9257C62.0269 95.9257 61.3289 96.2148 60.8144 96.7294C60.2998 97.244 60.0107 97.9419 60.0107 98.6696V112.389H63.1936ZM69.6143 112.389C70.7853 112.389 71.9419 112.647 73.0018 113.145C74.0617 113.643 74.9989 114.368 75.7465 115.27C76.4942 116.171 77.0341 117.226 77.3278 118.359C77.6214 119.493 77.6616 120.677 77.4454 121.828L72.243 149.574C71.8897 151.462 70.8878 153.166 69.4107 154.393C67.9335 155.619 66.074 156.291 64.154 156.292H28.4284C26.5083 156.291 24.6488 155.619 23.1717 154.393C21.6945 153.166 20.6926 151.462 20.3393 149.574L15.1369 121.828C14.9208 120.677 14.961 119.493 15.2546 118.359C15.5482 117.226 16.0881 116.171 16.8358 115.27C17.5835 114.368 18.5206 113.643 19.5805 113.145C20.6404 112.647 21.797 112.389 22.968 112.389H21.5961V98.6696C21.5963 96.676 22.3201 94.7503 23.6329 93.25C24.9457 91.7498 26.7583 90.7769 28.7342 90.512C30.7101 90.2472 32.715 90.7084 34.3765 91.81C36.0381 92.9116 37.2434 94.5788 37.7686 96.5019C39.6178 95.7661 41.6714 95.7271 43.5473 96.3922V93.1818C43.5475 91.1882 44.2713 89.2625 45.5841 87.7622C46.8969 86.2619 48.7095 85.2891 50.6854 85.0242C52.6613 84.7594 54.6662 85.2206 56.3277 86.3222C57.9893 87.4238 59.1946 89.091 59.7198 91.0141C60.9687 90.5188 62.3198 90.3367 63.6552 90.4837C64.9906 90.6307 66.2698 91.1023 67.381 91.8574C68.4922 92.6125 69.4017 93.628 70.0302 94.8155C70.6586 96.0029 70.9869 97.3261 70.9863 98.6696V112.389H69.6143ZM59.9064 123.365C58.8783 124.649 57.5746 125.686 56.0918 126.398C54.609 127.11 52.985 127.48 51.34 127.481H41.2424C39.5983 127.48 37.9754 127.109 36.4936 126.397C35.0118 125.684 33.709 124.648 32.6814 123.365H32.5717V123.233C32.2565 122.826 31.9705 122.396 31.7156 121.949L29.3887 117.877H22.968C22.6028 117.876 22.2419 117.956 21.9112 118.111C21.5805 118.266 21.288 118.492 21.0547 118.773C20.8214 119.054 20.6531 119.383 20.5617 119.737C20.4703 120.09 20.4581 120.46 20.5259 120.818L23.0613 134.34H69.521L72.0564 120.818C72.1243 120.46 72.1121 120.09 72.0207 119.737C71.9293 119.383 71.7609 119.054 71.5276 118.773C71.2943 118.492 71.0019 118.266 70.6711 118.111C70.3404 117.956 69.9795 117.876 69.6143 117.877H63.1936L60.8668 121.949C60.6109 122.396 60.3248 122.825 60.0107 123.233V123.365H59.9064ZM43.5473 104.157C43.5473 103.43 43.2582 102.732 42.7436 102.217C42.229 101.703 41.5311 101.414 40.8034 101.414C40.0756 101.414 39.3777 101.703 38.8631 102.217C38.3486 102.732 38.0595 103.43 38.0595 104.157V120.972C38.9885 121.635 40.1011 121.992 41.2424 121.993H43.5473V104.157ZM32.5717 112.389V98.6696C32.5717 97.9419 32.2826 97.244 31.768 96.7294C31.2534 96.2148 30.5555 95.9257 29.8278 95.9257C29.1 95.9257 28.4021 96.2148 27.8875 96.7294C27.3729 97.244 27.0839 97.9419 27.0839 98.6696V112.389H32.5717H29.3887C30.53 112.39 31.6426 112.747 32.5717 113.41V112.389ZM24.093 139.828L25.7284 148.565C25.8462 149.194 26.1807 149.763 26.6739 150.172C27.167 150.581 27.7877 150.804 28.4284 150.804H64.154C64.7946 150.804 65.4153 150.581 65.9085 150.172C66.4016 149.763 66.7361 149.194 66.854 148.565L68.4893 139.828H24.093Z" fill="#FFE3DC"/>
</g>
</g>
</svg>
