<svg id="database_icon" width="100" height="89" viewBox="0 0 100 89" fill="none" xmlns="http://www.w3.org/2000/svg">
<path d="M65 41.5C65 45.6421 58.2843 49 50 49C41.7157 49 35 45.6421 35 41.5C35 37.3579 41.7157 34 50 34C58.2843 34 65 37.3579 65 41.5Z" stroke="black" stroke-width="4"/>
<path d="M65 50.875C65 55.0171 58.2843 58.375 50 58.375C41.7157 58.375 35 55.0171 35 50.875" stroke="black" stroke-width="4"/>
<path d="M35 41.5V60.25C35 64.3921 41.7157 67.75 50 67.75C58.2843 67.75 65 64.3921 65 60.25V41.5" stroke="black" stroke-width="4"/>
<rect x="7" y="8" width="86" height="73" rx="8" stroke="black" stroke-width="4"/>
<line x1="7" y1="22.5" x2="92" y2="22.5" stroke="black" stroke-width="3"/>
<circle cx="17" cy="15" r="3" fill="black"/>
<circle cx="25" cy="15" r="3" fill="black"/>
<circle cx="33" cy="15" r="3" fill="black"/>
</svg>
