<svg id="deployment_icon" width="100" height="89" viewBox="0 0 100 89" fill="none" xmlns="http://www.w3.org/2000/svg">
<path d="M62.9412 48.8235C60.2958 51.4689 50 59.4118 50 59.4118M62.9412 48.8235C70 41.7647 70 37.0588 70 30C62.9412 30 58.2353 30 51.1765 37.0588M62.9412 48.8235L64.0593 54.4141C64.8308 58.2713 63.6235 62.2588 60.8419 65.0405L58.088 67.7944C56.9826 68.8998 55.1266 68.6398 54.3675 67.2732L50 59.4118M50 59.4118L40.5882 50M51.1765 37.0588L40.5882 50M51.1765 37.0588L45.5858 35.9407C41.7286 35.1692 37.7411 36.3766 34.9596 39.158L32.2057 41.9119C31.1004 43.0173 31.3603 44.8734 32.7268 45.6325L40.5882 50M59.4118 40.5894L57.0588 42.9423M30 70L37.9817 68.4038C40.1814 67.9638 41.7647 66.0325 41.7647 63.7892V62.9412C41.7647 60.3421 39.6578 58.2353 37.0588 58.2353H36.2108C33.9676 58.2353 32.0363 59.8186 31.5964 62.0184L30 70Z" stroke="black" stroke-width="5" stroke-linecap="round" stroke-linejoin="round"/>
<rect x="7" y="8" width="86" height="73" rx="8" stroke="black" stroke-width="4"/>
<line x1="7" y1="22.5" x2="92" y2="22.5" stroke="black" stroke-width="3"/>
<circle cx="17" cy="15" r="3" fill="black"/>
<circle cx="25" cy="15" r="3" fill="black"/>
<circle cx="33" cy="15" r="3" fill="black"/>
</svg>
