<svg width="200" height="200" viewBox="0 0 200 200" fill="none" xmlns="http://www.w3.org/2000/svg">
<g id="Share Cloud">
<rect width="200" height="200" rx="50" fill="black"/>
<g id="Share Cloud_2">
<path id="Cloud" d="M143.23 159.017C153.913 158.774 164.117 154.538 171.831 147.144C179.546 139.751 184.212 129.735 184.909 119.073C185.606 108.411 182.284 97.8735 175.598 89.5386C168.912 81.2035 159.346 75.6745 148.787 74.0419C144.742 62.7141 136.844 53.17 126.474 47.0747C116.105 40.9795 103.923 38.7207 92.0571 40.6966C80.1921 42.6724 69.3989 48.757 61.5639 57.8837C53.7289 67.0105 49.3509 78.6006 49.1948 90.6277C40.1257 90.6277 31.4282 94.2292 25.0154 100.642C18.6026 107.055 15 115.754 15 124.822C15 133.892 18.6026 142.589 25.0154 149.002C31.4282 155.415 40.1257 159.017 49.1948 159.017H143.23Z" fill="#1A1A1A" stroke="#323232" stroke-width="3" stroke-linecap="round" stroke-linejoin="round"/>
<g id="Share icon">
<path id="Line 12" d="M83.4722 112.014L103.875 126.097" stroke="#FFE3DC" stroke-width="5" stroke-linecap="round"/>
<path id="Ellipse 4" d="M103.973 141.822C102.956 142.255 101.77 141.784 101.458 140.724C100.563 137.685 100.522 134.444 101.359 131.362C102.372 127.633 104.611 124.354 107.715 122.054C110.82 119.754 114.608 118.566 118.47 118.682C122.332 118.799 126.042 120.212 129.002 122.695C131.962 125.178 134 128.585 134.787 132.368C135.573 136.15 135.063 140.088 133.338 143.545C131.614 147.002 128.775 149.778 125.279 151.424C122.39 152.785 119.191 153.309 116.043 152.957C114.945 152.834 114.275 151.748 114.524 150.672L115.561 146.193C115.81 145.117 116.891 144.472 117.996 144.466C119.24 144.46 120.476 144.184 121.616 143.647C123.364 142.823 124.783 141.436 125.645 139.707C126.508 137.978 126.763 136.01 126.369 134.118C125.976 132.227 124.957 130.523 123.477 129.282C121.997 128.041 120.142 127.334 118.211 127.276C116.28 127.218 114.386 127.811 112.834 128.962C111.282 130.112 110.162 131.751 109.656 133.615C109.326 134.831 109.269 136.097 109.479 137.323C109.666 138.412 109.219 139.588 108.202 140.021L103.973 141.822Z" fill="#8E2F39"/>
<path id="Line 13" d="M105.035 80.1389L83.4722 92.3725" stroke="#FFE3DC" stroke-width="5" stroke-linecap="round"/>
<path id="Ellipse 6" d="M120.765 87.3469C121.023 88.4211 120.36 89.513 119.264 89.644C116.118 90.0199 112.915 89.5205 110.016 88.1815C106.508 86.5619 103.648 83.808 101.897 80.3641C100.146 76.9201 99.6057 72.9868 100.364 69.1983C101.121 65.4098 103.133 61.9869 106.074 59.4816C109.015 56.9763 112.715 55.5346 116.575 55.3889C120.436 55.2432 124.234 56.402 127.355 58.6785C130.477 60.955 132.741 64.2165 133.782 67.9371C134.643 71.0129 134.627 74.2542 133.755 77.3C133.451 78.362 132.268 78.8422 131.249 78.4172L127.005 76.6484C125.986 76.2234 125.53 75.0503 125.708 73.9603C125.909 72.7325 125.843 71.4675 125.503 70.2541C124.982 68.3938 123.85 66.763 122.29 65.6248C120.729 64.4865 118.83 63.9071 116.9 63.98C114.969 64.0528 113.12 64.7737 111.649 66.0263C110.178 67.279 109.173 68.9904 108.794 70.8847C108.415 72.7789 108.685 74.7456 109.56 76.4676C110.436 78.1895 111.866 79.5664 113.62 80.3763C114.764 80.9045 116.002 81.1714 117.246 81.1682C118.351 81.1653 119.436 81.8022 119.694 82.8764L120.765 87.3469Z" fill="#8E2F39"/>
<path id="Ellipse 5" d="M72.5019 87.1257C72.7896 86.0592 73.8935 85.4172 74.9193 85.8267C77.8615 87.0014 80.4351 88.9719 82.3411 91.5349C84.6466 94.6351 85.8408 98.4215 85.7312 102.283C85.6215 106.145 84.2144 109.858 81.7366 112.822C79.2589 115.787 75.8549 117.83 72.0737 118.624C68.2924 119.417 64.3542 118.913 60.8941 117.194C57.4339 115.476 54.6535 112.641 53.0012 109.149C51.3488 105.657 50.9208 101.71 51.7862 97.9441C52.5016 94.8314 54.0664 91.9928 56.2886 89.7348C57.0634 88.9475 58.3322 89.0919 59.0242 89.9528L61.9044 93.5359C62.5965 94.3968 62.4359 95.6451 61.7577 96.517C60.9938 97.4991 60.4472 98.6418 60.165 99.8698C59.7323 101.752 59.9463 103.726 60.7725 105.472C61.5986 107.218 62.9888 108.635 64.7189 109.495C66.449 110.354 68.4181 110.606 70.3087 110.21C72.1993 109.813 73.9013 108.791 75.1402 107.309C76.379 105.827 77.0826 103.97 77.1375 102.039C77.1923 100.108 76.5952 98.2153 75.4424 96.6651C74.6905 95.654 73.7307 94.8273 72.6366 94.235C71.6652 93.7091 71.0166 92.6306 71.3043 91.5641L72.5019 87.1257Z" fill="#8E2F39"/>
</g>
</g>
</g>
</svg>
