<svg width="200" height="200" viewBox="0 0 200 200" fill="none" xmlns="http://www.w3.org/2000/svg">
<g id="Shop Tag">
<rect width="200" height="200" rx="50" fill="black"/>
<g id="Shop Tag_2">
<g id="tag barebone">
<path id="Vector" d="M171.142 27.1338C170.772 27.1338 170.772 27.1338 170.772 27.1338H113.516C112.038 27.1338 109.083 29.3867 108.714 29.7621L27.7705 112.038C24.0765 115.793 24.0765 121.425 27.7705 125.18L79.1171 177.372C80.9641 179.249 83.1805 180 85.3969 180C87.6133 180 90.1991 179.249 91.6767 177.372L172.25 95.4715C172.619 95.096 174.836 92.0922 174.836 90.5902V31.6395C175.575 29.0112 173.728 27.1338 171.142 27.1338ZM157.105 53.4175C153.041 53.4175 149.711 50.0382 149.711 45.9079C149.711 41.7776 153.041 38.3982 157.105 38.3982C161.168 38.3982 164.493 41.7776 164.493 45.9079C164.493 50.0382 161.168 53.4175 157.105 53.4175Z" fill="#3E3E3E"/>
<path id="Vector_2" d="M171.142 20C170.772 20 170.772 20 170.772 20H113.516C112.038 20 109.083 22.2529 108.714 22.6284L27.7705 104.904C24.0765 108.659 24.0765 114.291 27.7705 118.046L79.1171 170.238C80.9641 172.115 83.1805 172.866 85.3969 172.866C87.6133 172.866 90.1991 172.115 91.6767 170.238L172.25 88.3377C172.619 87.9623 174.836 84.9584 174.836 83.4565V24.5058C175.575 21.8774 173.728 20 171.142 20ZM157.105 46.2837C153.041 46.2837 149.711 42.9044 149.711 38.7741C149.711 34.6438 153.041 31.2645 157.105 31.2645C161.168 31.2645 164.493 34.6438 164.493 38.7741C164.493 42.9044 161.168 46.2837 157.105 46.2837Z" fill="#BB3A47"/>
</g>
<rect id="Spot empty" width="60.576" height="25.24" rx="3" transform="matrix(0.700384 0.713767 -0.700384 0.713767 111.678 40.3821)" fill="#8E2F39"/>
<g id="Price">
<path id="Rectangle 24" d="M77.1011 129.51C75.9407 128.327 75.9407 126.41 77.1012 125.227L108.254 93.4789C109.415 92.2963 111.296 92.2963 112.456 93.4789L125.932 107.212C127.092 108.394 127.092 110.312 125.932 111.494L94.7788 143.243C93.6184 144.425 91.737 144.425 90.5765 143.243L77.1011 129.51Z" fill="#8E2F39"/>
<path id="&#226;&#130;&#172;&#226;&#130;&#172;&#226;&#130;&#172;" d="M95.6999 122.612L96.0976 123.683L91.7423 128.121L91.2897 127.106L95.6999 122.612ZM96.4371 124.655L96.8154 125.792L93.1359 129.541L92.6606 128.504L96.4371 124.655ZM94.7849 119.92L95.4348 121.762C95.3205 121.79 95.1729 121.829 94.9918 121.877C94.8129 121.923 94.6211 121.998 94.4163 122.101C94.2137 122.202 94.0164 122.351 93.8246 122.546C93.5422 122.834 93.3687 123.151 93.304 123.498C93.2372 123.843 93.2986 124.224 93.4883 124.642C93.678 125.055 94.0132 125.506 94.4939 125.996C94.9789 126.49 95.4229 126.833 95.826 127.024C96.2291 127.211 96.5988 127.269 96.935 127.199C97.2691 127.126 97.5774 126.946 97.8598 126.658C98.0494 126.465 98.1949 126.266 98.2963 126.062C98.3976 125.858 98.4709 125.666 98.5161 125.489C98.5614 125.311 98.5937 125.166 98.6131 125.054L100.421 125.709C100.373 126.144 100.248 126.562 100.045 126.961C99.845 127.359 99.5777 127.728 99.2436 128.069C98.6702 128.653 98.03 129.035 97.323 129.215C96.6139 129.393 95.8821 129.353 95.1276 129.093C94.371 128.832 93.6338 128.335 92.916 127.604C92.1982 126.872 91.71 126.12 91.4514 125.347C91.1927 124.574 91.1496 123.825 91.322 123.1C91.4945 122.375 91.8674 121.72 92.4407 121.136C92.7878 120.782 93.1575 120.506 93.5498 120.309C93.9442 120.109 94.3559 119.979 94.7849 119.92ZM101.995 116.196L102.393 117.267L98.0376 121.706L97.5849 120.691L101.995 116.196ZM102.732 118.239L103.111 119.376L99.4311 123.126L98.9559 122.088L102.732 118.239ZM101.08 113.504L101.73 115.346C101.616 115.375 101.468 115.413 101.287 115.462C101.108 115.508 100.916 115.582 100.712 115.686C100.509 115.787 100.312 115.935 100.12 116.13C99.8375 116.418 99.6639 116.736 99.5993 117.083C99.5325 117.428 99.5939 117.809 99.7836 118.226C99.9733 118.639 100.308 119.091 100.789 119.58C101.274 120.075 101.718 120.417 102.121 120.609C102.524 120.795 102.894 120.853 103.23 120.783C103.564 120.711 103.873 120.531 104.155 120.243C104.345 120.049 104.49 119.851 104.592 119.646C104.693 119.442 104.766 119.251 104.811 119.073C104.857 118.895 104.889 118.75 104.908 118.638L106.716 119.294C106.668 119.729 106.543 120.146 106.341 120.546C106.14 120.944 105.873 121.313 105.539 121.653C104.965 122.237 104.325 122.62 103.618 122.8C102.909 122.978 102.177 122.937 101.423 122.678C100.666 122.416 99.9291 121.92 99.2113 121.188C98.4935 120.457 98.0053 119.705 97.7466 118.931C97.4879 118.158 97.4448 117.409 97.6173 116.684C97.7897 115.959 98.1626 115.305 98.736 114.72C99.083 114.367 99.4527 114.091 99.845 113.893C100.239 113.693 100.651 113.564 101.08 113.504ZM108.29 109.781L108.688 110.852L104.333 115.29L103.88 114.275L108.29 109.781ZM109.028 111.824L109.406 112.961L105.726 116.71L105.251 115.672L109.028 111.824ZM107.375 107.089L108.025 108.931C107.911 108.959 107.763 108.998 107.582 109.046C107.403 109.092 107.212 109.167 107.007 109.27C106.804 109.371 106.607 109.519 106.415 109.715C106.133 110.003 105.959 110.32 105.895 110.667C105.828 111.012 105.889 111.393 106.079 111.811C106.269 112.224 106.604 112.675 107.084 113.165C107.569 113.659 108.013 114.002 108.417 114.193C108.82 114.38 109.189 114.438 109.526 114.368C109.86 114.295 110.168 114.115 110.45 113.827C110.64 113.634 110.785 113.435 110.887 113.231C110.988 113.027 111.061 112.835 111.107 112.657C111.152 112.48 111.184 112.335 111.204 112.223L113.011 112.878C112.964 113.313 112.839 113.731 112.636 114.13C112.435 114.528 112.168 114.897 111.834 115.238C111.261 115.822 110.621 116.204 109.914 116.384C109.204 116.562 108.473 116.522 107.718 116.262C106.962 116.001 106.224 115.504 105.507 114.773C104.789 114.041 104.301 113.289 104.042 112.516C103.783 111.743 103.74 110.993 103.913 110.269C104.085 109.544 104.458 108.889 105.031 108.305C105.378 107.951 105.748 107.675 106.14 107.478C106.535 107.278 106.946 107.148 107.375 107.089Z" fill="#BB3A47"/>
</g>
<g id="Name">
<rect id="Rectangle 25" width="60.576" height="25.24" rx="3" transform="matrix(0.700384 -0.713767 0.700384 0.713767 43 109.097)" fill="#8E2F39"/>
<path id="@@@@" d="M63.8125 113.289C63.1698 113.944 62.5102 114.44 61.8337 114.776C61.1572 115.113 60.4757 115.288 59.7893 115.302C59.1068 115.317 58.4343 115.173 57.7717 114.87C57.1111 114.566 56.4744 114.104 55.8616 113.483C55.2567 112.863 54.7981 112.207 54.4857 111.516C54.1713 110.822 54.0111 110.111 54.0052 109.383C53.9992 108.655 54.1554 107.931 54.4737 107.209C54.7921 106.487 55.2806 105.79 55.9392 105.119C56.5421 104.505 57.1688 104.042 57.8195 103.732C58.4701 103.418 59.1247 103.254 59.7833 103.239C60.4399 103.223 61.0836 103.356 61.7143 103.638C62.3431 103.918 62.94 104.345 63.5051 104.921C63.8931 105.317 64.2045 105.711 64.4393 106.105C64.6741 106.494 64.8253 106.881 64.8929 107.266C64.9606 107.652 64.9387 108.031 64.8273 108.404C64.7159 108.773 64.5109 109.134 64.2125 109.487C63.9757 109.769 63.7618 109.952 63.5708 110.037C63.3817 110.125 63.2066 110.147 63.0455 110.104C62.8843 110.058 62.7271 109.981 62.5739 109.873L62.5381 109.91C62.6137 110.08 62.6237 110.291 62.5679 110.542C62.5102 110.792 62.4008 111.049 62.2396 111.315C62.0805 111.578 61.8815 111.818 61.6427 112.033C61.398 112.25 61.1214 112.42 60.813 112.544C60.5066 112.665 60.1783 112.722 59.8281 112.714C59.4779 112.702 59.1168 112.608 58.7447 112.431C58.3726 112.255 58.0015 111.98 57.6314 111.607C57.2653 111.23 57.0007 110.855 56.8375 110.481C56.6724 110.106 56.5838 109.744 56.5719 109.396C56.558 109.045 56.6008 108.719 56.7002 108.419C56.8017 108.117 56.934 107.852 57.0972 107.625C57.2882 107.35 57.5061 107.121 57.7508 106.941C57.9975 106.758 58.2313 106.632 58.4522 106.561C58.675 106.488 58.8481 106.478 58.9715 106.53L59.0163 106.485L58.682 106.144L59.6968 105.11L62.6694 108.139C62.8047 108.269 62.9281 108.34 63.0395 108.352C63.1489 108.362 63.2444 108.326 63.326 108.243C63.4454 108.121 63.4912 107.957 63.4633 107.75C63.4355 107.539 63.326 107.288 63.135 106.996C62.942 106.702 62.6605 106.366 62.2904 105.989C61.8865 105.577 61.4865 105.277 61.0906 105.089C60.6946 104.9 60.3086 104.803 59.9325 104.797C59.5565 104.786 59.1944 104.845 58.8462 104.973C58.4999 105.099 58.1716 105.273 57.8612 105.496C57.5508 105.715 57.2653 105.958 57.0047 106.223C56.4993 106.738 56.1371 107.261 55.9183 107.793C55.6994 108.324 55.6029 108.852 55.6288 109.377C55.6546 109.898 55.786 110.401 56.0227 110.886C56.2595 111.367 56.5809 111.816 56.9868 112.233C57.4504 112.702 57.9239 113.051 58.4074 113.28C58.8909 113.509 59.3784 113.618 59.8699 113.608C60.3633 113.596 60.8558 113.465 61.3472 113.216C61.8407 112.964 62.3272 112.594 62.8067 112.106C63.0395 111.868 63.2504 111.621 63.4394 111.363C63.6305 111.108 63.7936 110.865 63.9289 110.633C64.0642 110.402 64.1657 110.204 64.2333 110.037L65.5167 110.67C65.467 110.875 65.3655 111.122 65.2123 111.412C65.0591 111.702 64.8631 112.009 64.6243 112.334C64.3875 112.66 64.1169 112.979 63.8125 113.289ZM60.9443 110.536C61.1831 110.293 61.3264 110.056 61.3741 109.824C61.4219 109.589 61.387 109.353 61.2696 109.116C61.1523 108.878 60.9642 108.632 60.7056 108.377C60.4927 108.164 60.2798 108.001 60.0669 107.89C59.854 107.778 59.6341 107.747 59.4073 107.796C59.1804 107.844 58.9397 107.998 58.685 108.258C58.4661 108.481 58.3239 108.715 58.2582 108.961C58.1925 109.202 58.1995 109.446 58.2791 109.694C58.3607 109.939 58.5129 110.177 58.7357 110.408C58.9367 110.609 59.1595 110.767 59.4043 110.883C59.647 110.996 59.8997 111.033 60.1624 110.992C60.425 110.952 60.6857 110.8 60.9443 110.536ZM72.6932 104.238C72.0505 104.893 71.3909 105.389 70.7144 105.726C70.0379 106.062 69.3564 106.238 68.6699 106.252C67.9875 106.266 67.3149 106.122 66.6524 105.82C65.9918 105.516 65.3551 105.054 64.7422 104.433C64.1373 103.813 63.6787 103.157 63.3663 102.465C63.0519 101.772 62.8918 101.061 62.8858 100.333C62.8798 99.6051 63.036 98.8802 63.3544 98.1583C63.6727 97.4364 64.1612 96.7399 64.8198 96.0687C65.4227 95.4543 66.0495 94.992 66.7001 94.6817C67.3507 94.3674 68.0054 94.2032 68.664 94.189C69.3206 94.1728 69.9643 94.3056 70.595 94.5874C71.2237 94.8673 71.8207 95.2951 72.3857 95.871C72.7737 96.2664 73.0851 96.6608 73.3199 97.0542C73.5547 97.4435 73.7059 97.8308 73.7736 98.2161C73.8412 98.6014 73.8193 98.9805 73.7079 99.3537C73.5965 99.7227 73.3916 100.084 73.0931 100.436C72.8563 100.718 72.6424 100.902 72.4514 100.987C72.2624 101.074 72.0873 101.096 71.9261 101.054C71.765 101.007 71.6078 100.93 71.4546 100.823L71.4187 100.859C71.4943 101.03 71.5043 101.24 71.4486 101.492C71.3909 101.741 71.2814 101.999 71.1203 102.264C70.9611 102.528 70.7621 102.767 70.5234 102.982C70.2786 103.199 70.0021 103.37 69.6936 103.493C69.3872 103.615 69.0589 103.672 68.7087 103.664C68.3585 103.651 67.9974 103.557 67.6253 103.381C67.2532 103.204 66.8822 102.93 66.5121 102.556C66.146 102.179 65.8813 101.804 65.7182 101.431C65.553 101.056 65.4645 100.694 65.4525 100.345C65.4386 99.9944 65.4814 99.669 65.5809 99.3689C65.6824 99.0667 65.8147 98.8021 65.9778 98.575C66.1688 98.2992 66.3867 98.0711 66.6315 97.8906C66.8782 97.7081 67.112 97.5814 67.3328 97.5104C67.5557 97.4374 67.7288 97.4273 67.8522 97.48L67.8969 97.4344L67.5627 97.0937L68.5774 96.0596L71.5501 99.089C71.6854 99.2188 71.8087 99.2898 71.9202 99.3019C72.0296 99.3121 72.1251 99.2756 72.2067 99.1924C72.3261 99.0708 72.3718 98.9065 72.344 98.6997C72.3161 98.4888 72.2067 98.2374 72.0157 97.9454C71.8227 97.6514 71.5411 97.3158 71.171 96.9386C70.7671 96.527 70.3672 96.2269 69.9712 96.0383C69.5753 95.8497 69.1893 95.7524 68.8132 95.7463C68.4371 95.7362 68.075 95.795 67.7268 95.9227C67.3806 96.0484 67.0523 96.2228 66.7419 96.4459C66.4315 96.6649 66.146 96.9072 65.8853 97.1728C65.3799 97.6879 65.0178 98.211 64.7989 98.7423C64.5801 99.2736 64.4836 99.8018 64.5094 100.327C64.5353 100.848 64.6666 101.351 64.9034 101.836C65.1402 102.316 65.4615 102.765 65.8674 103.183C66.331 103.651 66.8046 104 67.2881 104.229C67.7716 104.459 68.2591 104.568 68.7505 104.558C69.244 104.546 69.7364 104.415 70.2279 104.165C70.7213 103.914 71.2078 103.544 71.6874 103.055C71.9202 102.818 72.1311 102.571 72.3201 102.313C72.5111 102.058 72.6743 101.814 72.8096 101.583C72.9449 101.352 73.0463 101.153 73.114 100.987L74.3974 101.62C74.3476 101.824 74.2461 102.072 74.0929 102.362C73.9397 102.652 73.7437 102.959 73.505 103.283C73.2682 103.61 72.9976 103.928 72.6932 104.238ZM69.825 101.486C70.0637 101.242 70.207 101.005 70.2548 100.774C70.3025 100.539 70.2677 100.303 70.1503 100.065C70.0329 99.8281 69.8449 99.5818 69.5862 99.3263C69.3733 99.1134 69.1604 98.9511 68.9475 98.8396C68.7346 98.7281 68.5147 98.6967 68.2879 98.7453C68.0611 98.794 67.8203 98.9481 67.5656 99.2077C67.3468 99.4307 67.2045 99.6649 67.1388 99.9103C67.0732 100.152 67.0801 100.396 67.1597 100.643C67.2413 100.889 67.3935 101.127 67.6164 101.358C67.8173 101.559 68.0402 101.717 68.2849 101.833C68.5277 101.946 68.7804 101.983 69.043 101.942C69.3057 101.902 69.5663 101.749 69.825 101.486ZM81.5738 95.1882C80.9311 95.8431 80.2715 96.3389 79.595 96.6755C78.9185 97.0121 78.237 97.1875 77.5506 97.2017C76.8681 97.2159 76.1956 97.0719 75.533 96.7698C74.8724 96.4656 74.2357 96.0033 73.6229 95.3828C73.018 94.7623 72.5594 94.1064 72.247 93.4149C71.9326 92.7214 71.7724 92.0107 71.7664 91.2827C71.7605 90.5548 71.9167 89.8298 72.235 89.108C72.5534 88.3861 73.0419 87.6895 73.7005 87.0184C74.3033 86.404 74.9301 85.9416 75.5807 85.6314C76.2314 85.3171 76.886 85.1528 77.5446 85.1386C78.2012 85.1224 78.8449 85.2552 79.4756 85.5371C80.1044 85.8169 80.7013 86.2448 81.2664 86.8207C81.6544 87.2161 81.9658 87.6105 82.2006 88.0038C82.4354 88.3932 82.5866 88.7805 82.6542 89.1657C82.7219 89.551 82.7 89.9302 82.5886 90.3033C82.4771 90.6724 82.2722 91.0333 81.9737 91.3861C81.737 91.668 81.5231 91.8515 81.3321 91.9367C81.143 92.0239 80.9679 92.0462 80.8068 92.0036C80.6456 91.9569 80.4884 91.8799 80.3352 91.7724L80.2994 91.8089C80.375 91.9792 80.3849 92.1901 80.3292 92.4416C80.2715 92.691 80.1621 92.9485 80.0009 93.2141C79.8417 93.4778 79.6428 93.717 79.404 93.932C79.1593 94.1489 78.8827 94.3193 78.5743 94.443C78.2679 94.5646 77.9396 94.6214 77.5894 94.6133C77.2392 94.6011 76.8781 94.5068 76.506 94.3304C76.1339 94.154 75.7628 93.8792 75.3927 93.5061C75.0266 93.129 74.762 92.7538 74.5988 92.3807C74.4337 92.0056 74.3451 91.6437 74.3332 91.2949C74.3193 90.9441 74.362 90.6186 74.4615 90.3185C74.563 90.0164 74.6953 89.7518 74.8585 89.5247C75.0495 89.2489 75.2674 89.0208 75.5121 88.8403C75.7588 88.6578 75.9926 88.5311 76.2135 88.4601C76.4363 88.3871 76.6094 88.377 76.7328 88.4297L76.7776 88.3841L76.4433 88.0434L77.4581 87.0092L80.4307 90.0387C80.566 90.1685 80.6894 90.2394 80.8008 90.2516C80.9102 90.2617 81.0057 90.2252 81.0873 90.1421C81.2067 90.0204 81.2525 89.8562 81.2246 89.6494C81.1968 89.4385 81.0873 89.187 80.8963 88.895C80.7033 88.601 80.4218 88.2654 80.0517 87.8883C79.6477 87.4766 79.2478 87.1765 78.8519 86.9879C78.4559 86.7994 78.0699 86.702 77.6938 86.696C77.3178 86.6858 76.9557 86.7446 76.6074 86.8724C76.2612 86.9981 75.9329 87.1725 75.6225 87.3955C75.3121 87.6145 75.0266 87.8568 74.766 88.1225C74.2606 88.6375 73.8984 89.1607 73.6796 89.6919C73.4607 90.2232 73.3642 90.7514 73.3901 91.2766C73.4159 91.7978 73.5472 92.3006 73.784 92.7853C74.0208 93.2659 74.3421 93.715 74.748 94.1327C75.2117 94.6011 75.6852 94.9499 76.1687 95.179C76.6522 95.4082 77.1397 95.5177 77.6312 95.5075C78.1246 95.4954 78.6171 95.3646 79.1085 95.1152C79.602 94.8637 80.0885 94.4937 80.568 94.005C80.8008 93.7677 81.0117 93.5203 81.2007 93.2628C81.3917 93.0073 81.5549 92.764 81.6902 92.5328C81.8255 92.3017 81.927 92.1029 81.9946 91.9367L83.278 92.5693C83.2283 92.7741 83.1268 93.0215 82.9736 93.3115C82.8204 93.6014 82.6244 93.9086 82.3856 94.2331C82.1488 94.5596 81.8782 94.8779 81.5738 95.1882ZM78.7056 92.4355C78.9444 92.1922 79.0876 91.9549 79.1354 91.7237C79.1831 91.4885 79.1483 91.2523 79.0309 91.0151C78.9135 90.7778 78.7255 90.5314 78.4668 90.2759C78.2539 90.063 78.041 89.9008 77.8281 89.7893C77.6152 89.6778 77.3954 89.6463 77.1686 89.695C76.9417 89.7437 76.701 89.8978 76.4463 90.1573C76.2274 90.3804 76.0851 90.6146 76.0195 90.8599C75.9538 91.1012 75.9608 91.3456 76.0404 91.593C76.122 91.8383 76.2742 92.0766 76.497 92.3077C76.698 92.5085 76.9208 92.6667 77.1656 92.7822C77.4083 92.8958 77.661 92.9323 77.9237 92.8917C78.1863 92.8512 78.4469 92.6991 78.7056 92.4355ZM90.4544 86.1378C89.8118 86.7928 89.1522 87.2886 88.4757 87.6252C87.7992 87.9618 87.1177 88.1372 86.4312 88.1514C85.7487 88.1656 85.0762 88.0216 84.4136 87.7195C83.7531 87.4153 83.1163 86.953 82.5035 86.3325C81.8986 85.712 81.44 85.056 81.1276 84.3646C80.8132 83.6711 80.6531 82.9603 80.6471 82.2324C80.6411 81.5044 80.7973 80.7795 81.1157 80.0576C81.434 79.3357 81.9225 78.6392 82.5811 77.968C83.184 77.3536 83.8108 76.8913 84.4614 76.581C85.112 76.2667 85.7667 76.1025 86.4253 76.0883C87.0819 76.0721 87.7255 76.2049 88.3563 76.4868C88.985 76.7666 89.582 77.1944 90.147 77.7703C90.535 78.1657 90.8464 78.5601 91.0812 78.9535C91.316 79.3428 91.4672 79.7301 91.5349 80.1154C91.6025 80.5007 91.5806 80.8799 91.4692 81.253C91.3578 81.622 91.1528 81.983 90.8544 82.3358C90.6176 82.6176 90.4037 82.8012 90.2127 82.8863C90.0237 82.9735 89.8486 82.9958 89.6874 82.9532C89.5262 82.9066 89.3691 82.8295 89.2158 82.7221L89.18 82.7586C89.2556 82.9289 89.2656 83.1398 89.2099 83.3912C89.1522 83.6406 89.0427 83.8982 88.8816 84.1638C88.7224 84.4274 88.5234 84.6667 88.2847 84.8816C88.0399 85.0986 87.7633 85.2689 87.4549 85.3926C87.1485 85.5143 86.8202 85.5711 86.47 85.5629C86.1198 85.5508 85.7587 85.4565 85.3866 85.2801C85.0145 85.1037 84.6435 84.8289 84.2734 84.4558C83.9073 84.0786 83.6426 83.7035 83.4795 83.3304C83.3143 82.9553 83.2258 82.5933 83.2138 82.2445C83.1999 81.8937 83.2427 81.5683 83.3422 81.2682C83.4436 80.966 83.576 80.7014 83.7391 80.4743C83.9301 80.1985 84.148 79.9704 84.3927 79.79C84.6395 79.6075 84.8733 79.4807 85.0941 79.4098C85.317 79.3368 85.4901 79.3266 85.6134 79.3793L85.6582 79.3337L85.3239 78.9931L86.3387 77.9589L89.3114 80.9884C89.4467 81.1181 89.57 81.1891 89.6814 81.2013C89.7909 81.2114 89.8864 81.1749 89.968 81.0918C90.0873 80.9701 90.1331 80.8059 90.1053 80.599C90.0774 80.3881 89.968 80.1367 89.7769 79.8447C89.5839 79.5507 89.3024 79.2151 88.9323 78.8379C88.5284 78.4263 88.1285 78.1262 87.7325 77.9376C87.3365 77.749 86.9505 77.6517 86.5745 77.6456C86.1984 77.6355 85.8363 77.6943 85.4881 77.822C85.1419 77.9477 84.8136 78.1221 84.5032 78.3452C84.1928 78.5642 83.9073 78.8065 83.6466 79.0721C83.1412 79.5872 82.7791 80.1103 82.5602 80.6416C82.3413 81.1729 82.2448 81.7011 82.2707 82.2263C82.2966 82.7474 82.4279 83.2503 82.6647 83.7349C82.9014 84.2155 83.2228 84.6647 83.6287 85.0824C84.0923 85.5508 84.5659 85.8996 85.0494 86.1287C85.5329 86.3578 86.0203 86.4673 86.5118 86.4572C87.0053 86.445 87.4977 86.3142 87.9892 86.0648C88.4826 85.8134 88.9691 85.4433 89.4486 84.9546C89.6814 84.7174 89.8924 84.47 90.0814 84.2125C90.2724 83.957 90.4355 83.7136 90.5708 83.4825C90.7061 83.2513 90.8076 83.0526 90.8753 82.8863L92.1586 83.519C92.1089 83.7238 92.0074 83.9712 91.8542 84.2611C91.701 84.5511 91.505 84.8583 91.2663 85.1827C91.0295 85.5092 90.7589 85.8276 90.4544 86.1378ZM87.5863 83.3851C87.825 83.1418 87.9683 82.9046 88.016 82.6734C88.0638 82.4382 88.029 82.202 87.9116 81.9647C87.7942 81.7275 87.6062 81.4811 87.3475 81.2256C87.1346 81.0127 86.9217 80.8505 86.7088 80.7389C86.4959 80.6274 86.276 80.596 86.0492 80.6447C85.8224 80.6933 85.5816 80.8474 85.3269 81.107C85.1081 81.33 84.9658 81.5642 84.9001 81.8096C84.8345 82.0509 84.8414 82.2952 84.921 82.5426C85.0026 82.788 85.1548 83.0262 85.3777 83.2574C85.5786 83.4581 85.8015 83.6163 86.0462 83.7319C86.289 83.8454 86.5417 83.8819 86.8043 83.8414C87.0669 83.8008 87.3276 83.6488 87.5863 83.3851Z" fill="#BB3A47"/>
</g>
</g>
</g>
</svg>
